<svg version="1" xmlns="http://www.w3.org/2000/svg" width="1706.667" height="1706.667" viewBox="0 0 1280.000000 1280.000000"><path d="M640.9 4.3c-.1 2.6.2 529.1.5 792.9.1 103.3-.2 187.8-.6 187.8-.5 0-2.5-.8-4.6-1.9-3.4-1.7-22.4-9.1-24.7-9.5-.5-.2-4.1-1.2-7.9-2.4-6.4-2.1-7.9-2.5-14.1-3.7-12.1-2.4-17-2.8-35-2.9-15.7 0-30.4.7-36.5 1.8-1.4.3-4.3.7-6.5 1-3.7.5-11.1 1.8-16.2 3.1-1.3.3-3.2.7-4.3.9-6.2 1.4-23.9 7.6-34 11.9-1.4.6-2.7 1.1-3 1.1-.3.1-7.5 3.6-16 7.8-45 22.2-79.9 49.3-104.9 81.2-17.3 22.2-28.4 44.8-33.2 68.1-2.2 10.6-2.9 27-1.7 35.5.5 3 1.1 7 1.3 8.9.8 4.9 6 20.2 9.1 26.3 7.8 15.6 23.8 34.5 37.4 44 12 8.5 30.3 16.3 43.9 18.8 3.1.5 6.7 1.2 8.1 1.5 11.3 2.2 42 2.3 53.6.1 1-.2 3.9-.7 6.4-1.1 6.5-.9 18-3.3 21.8-4.4 1.8-.5 3.5-1 3.7-1 1.3 0 13-3.6 22-6.8 34.1-12.1 63.5-28.6 93-52.2 6.9-5.5 29.3-27.3 35-34.1 5.4-6.3 9.5-11.8 9.5-12.6 0-.4.7-1.5 1.5-2.4 4.4-4.9 18.8-31.6 25.3-47 2.2-5.2 5.4-14 7.1-19.4 6.8-21.2 6.3-.9 6.7-253.6.2-126.2.5-288.6.6-360.9l.3-131.3 6.2.6c3.3.4 7.4 1 9 1.5 1.5.5 6.2 1.9 10.3 3.1 4.1 1.3 7.9 2.6 8.4 3.1.6.5 1.8.9 2.8.9.9 0 3.2.7 5 1.4 1.8.8 9.4 4.1 16.8 7.2 13.2 5.7 38.9 18.5 46.2 23.1 2.1 1.2 4 2.3 4.3 2.3 1.3 0 29.5 18.6 39.5 26.1 16.9 12.7 27.1 22 37.1 33.9 3 3.6 5.7 6.7 6 7 .3.3 3.3 4.4 6.6 9.1 23.4 33.2 43.4 78.3 54.6 123.4 3.9 15.6 5.3 22.1 8.3 38.9.2 1 .6 4.4 1 7.5.3 3.1.8 6.4 1 7.5 2.6 13.8 2.5 64.4-.1 77.6-.3 1.4-.7 4.1-1 6-.7 5.9-4.4 23.1-6.6 31-1.1 4.1-2.3 8.5-2.5 9.6-.5 2.9-9.8 32.7-11.9 38.4-.9 2.5-2.1 6.1-2.7 8-1.2 4-16.3 45-18.3 49.5-.7 1.6-2.5 5.9-3.8 9.5-1.4 3.6-6.4 16.4-11.2 28.5-8 20.2-17.2 44.1-18.9 49-.4 1.1-.6 2-.4 2.1.2 0-.3.8-1 1.6-1 1.3-1 1.7 0 2.1 5.6 2 18.2-15.8 34.3-48.6 5.9-11.9 10.8-22.2 10.9-22.9.1-.7 1.4-3.8 2.8-6.8s5.5-12.9 9.1-22c3.5-9.1 6.8-17.4 7.2-18.5.5-1.1.9-2.2 1-2.5.1-.3.4-1.2.8-2 2.1-5.2 16.4-46.9 17.2-50 .2-.8 1.6-5.3 3-10 3-9.6 7.5-25.7 10.6-37.5 1.1-4.4 2.5-9.6 3-11.5 1.5-5.7 4.9-21.1 5.5-24.9.3-2 .9-5.2 1.4-7.1.5-1.9 1.1-5.3 1.5-7.5.3-2.2 1-6.7 1.5-10 1.7-11.6 1.9-13.1 2.6-21.5 1.5-17.4.5-53.1-2-70-.4-2.5-1.1-7.9-1.7-12-.6-4.1-1.3-8.4-1.6-9.5-.2-1.1-.6-3.4-.9-5-1.9-11.3-10.1-39-15.9-54-6.8-17.5-21.1-46.1-31.6-63.5-6.7-11.2-20.9-32.8-24.3-37.1-1.2-1.4-2.8-3.6-3.6-4.9-1.8-2.7-10.9-14.9-17.6-23.7-6.3-8.2-27-33.6-30.9-37.9-.5-.6-3-3.5-5.5-6.4-2.5-2.9-4.9-5.8-5.5-6.4-.5-.6-4.1-4.7-7.9-9.1-3.8-4.4-7.9-8.9-9-10.1-1.2-1.1-4.8-5.2-8.1-8.9-3.3-3.8-6.9-7.8-8-9-1.1-1.1-4.9-5.4-8.5-9.5-3.6-4.1-7.9-9.1-9.7-11-5.1-5.7-26.6-31.3-29.3-35-1.4-1.8-3-3.8-3.5-4.4-.6-.6-4.5-5.6-8.6-11.1-18.8-25-30.3-44.1-40.7-67.5-2-4.4-9-24-9.7-27-.2-.8-1.8-7.1-3.5-13.9-3.6-14.7-8.6-42.6-9.6-54.3-.4-4.6-.7-18.3-.6-30.5l.1-22.2h-21.5L641 2l-.1 2.3z"/></svg>